<?xml version="1.0" encoding="UTF-8" standalone="no"?>
<!-- Created with Inkscape (http://www.inkscape.org/) -->

<svg
   width="183.49039mm"
   height="183.953mm"
   viewBox="0 0 183.49039 183.953"
   version="1.1"
   id="svg1"
   xml:space="preserve"
   inkscape:version="1.4.2 (ebf0e940, 2025-05-08)"
   sodipodi:docname="app_logo_imp.svg"
   xmlns:inkscape="http://www.inkscape.org/namespaces/inkscape"
   xmlns:sodipodi="http://sodipodi.sourceforge.net/DTD/sodipodi-0.dtd"
   xmlns="http://www.w3.org/2000/svg"
   xmlns:svg="http://www.w3.org/2000/svg"><sodipodi:namedview
     id="namedview1"
     pagecolor="#ffffff"
     bordercolor="#000000"
     borderopacity="0.25"
     inkscape:showpageshadow="2"
     inkscape:pageopacity="0.0"
     inkscape:pagecheckerboard="0"
     inkscape:deskcolor="#d1d1d1"
     inkscape:document-units="mm"
     inkscape:zoom="0.38975158"
     inkscape:cx="1380.3664"
     inkscape:cy="537.52187"
     inkscape:window-width="1440"
     inkscape:window-height="900"
     inkscape:window-x="0"
     inkscape:window-y="0"
     inkscape:window-maximized="0"
     inkscape:current-layer="layer1"><inkscape:page
       x="0"
       y="0"
       width="183.49039"
       height="183.953"
       id="page2"
       margin="0"
       bleed="0" /></sodipodi:namedview><defs
     id="defs1" /><g
     inkscape:label="Layer 1"
     inkscape:groupmode="layer"
     id="layer1"
     transform="translate(-225.31017,29.527033)"><path
       style="fill:#e57122;stroke:none"
       d="m 311.09122,-29.12198 c -4.78184,0.627869 -9.55576,0.827776 -14.2875,1.912109 -15.93356,3.651359 -30.88438,11.447685 -42.8625,22.6055314 -8.21828,7.655475 -14.63764,16.6855276 -19.6445,26.6992406 -4.54879,9.097587 -7.43519,19.258933 -8.44604,29.368748 -1.71291,17.131288 0.58148,34.551588 7.79929,50.270841 16.37014,35.6516 56.11054,56.71727 94.63916,52.04736 43.32784,-5.25156 78.51385,-43.10926 80.42292,-86.707783 1.87842,-42.898318 -26.32016,-81.472334 -67.72292,-92.98103 -9.30936,-2.587713 -20.2185,-4.485934 -29.89791,-3.215017 m 0.26458,14.250761 c 6.68808,-0.789132 14.07128,0.04166 20.6375,1.353115 36.50942,7.2919324 65.54669,41.309669 62.94716,79.269251 -0.69742,10.18415 -2.92799,20.05989 -7.20174,29.36875 -11.45699,24.954993 -36.25732,41.411883 -63.15375,44.639043 -8.96301,1.07543 -18.26122,0.11706 -26.9875,-2.0746 -8.83219,-2.21828 -17.05254,-6.12222 -24.60625,-11.16723 C 265.581,121.56793 258.98914,115.27268 253.71767,108.08448 229.90647,75.615407 235.72098,28.618453 266.64122,2.8954604 279.7649,-8.0223156 294.69137,-12.904964 311.3558,-14.871219 m -7.14375,9.5619484 c -12.10605,1.643246 -23.76912,7.518371 -33.07291,15.254785 -3.2946,2.7395776 -8.27364,6.6515796 -8.39767,11.3556366 -0.12322,4.673907 5.91262,7.013816 9.19142,9.080146 9.03536,5.694161 18.09894,11.345447 27.25208,16.849019 2.97767,1.790411 7.44152,5.802327 11.1125,5.235113 5.4718,-0.845474 3.175,-9.982255 3.175,-13.701779 0,-12.135903 -0.24872,-24.412995 -1.08202,-36.5124976 -0.32739,-4.753747 -3.09174,-8.250869 -8.1784,-7.560423 m 22.48958,0.01122 c -5.56056,1.04908 -5.37396,6.852489 -5.56666,11.253367 -0.5047,11.5262006 -1.04792,23.1131546 -1.04792,34.6604136 0,4.024609 -1.58118,12.899342 5.02708,12.087327 3.7614,-0.462197 7.66859,-4.09413 10.84792,-6.00191 8.44406,-5.066923 16.77775,-10.292524 25.13542,-15.498343 3.21808,-2.00448 9.22364,-4.415928 9.96699,-8.578739 0.85446,-4.785028 -4.6663,-9.247772 -7.85032,-11.977902 -7.43617,-6.3761126 -16.26526,-11.32167564 -25.66459,-14.1417396 -3.33321,-1.000052 -7.32733,-2.466677 -10.84792,-1.802474 m 0.52917,48.5596146 -0.26458,-0.264584 c 0.55297,-2.322678 0.58141,-4.588237 1.4352,-6.879166 0.90077,-2.416971 1.90611,-5.166367 4.12206,-6.706454 1.34585,-0.935376 3.26248,-0.959082 4.11146,0.632665 2.52045,4.725535 -5.62472,11.899305 -9.40414,13.217539 M 298.65989,29.092891 c 4.29328,-1.080409 6.66438,6.489284 7.43486,9.406176 0.23423,0.886735 1.43595,3.826478 0.14986,4.313367 -1.17629,0.445321 -2.61273,-0.972744 -3.35548,-1.678144 -2.30513,-2.189223 -5.07149,-4.44716 -5.84737,-7.662306 -0.36508,-1.512844 -0.23252,-3.913376 1.61813,-4.379093 m -42.07284,3.193377 c -5.0371,1.052342 -5.80756,7.08634 -6.84568,11.239882 -2.96497,11.863035 -3.00924,23.558717 -0.35278,35.454167 1.04449,4.67714 2.39925,13.61897 9.05055,12.47278 3.77624,-0.65075 7.78072,-3.94736 11.1125,-5.77736 8.75533,-4.80891 17.36381,-9.86416 25.92916,-15.00325 2.78333,-1.66995 10.15852,-4.499 10.55455,-8.09634 0.50569,-4.593532 -6.47764,-7.150643 -9.7608,-9.035428 -9.44303,-5.421019 -18.84459,-10.909153 -28.31041,-16.290252 -3.06061,-1.73988 -7.64356,-5.744206 -11.37709,-4.964199 m 118.26875,0.532009 c -4.21331,0.967157 -8.66714,4.421193 -12.43541,6.511295 -8.17951,4.536819 -16.42457,9.083618 -24.34167,14.070474 -2.91499,1.836096 -10.0419,4.469898 -10.37347,8.382351 -0.35446,4.18256 7.44304,6.97304 10.37347,8.73125 9.32368,5.59407 18.80416,10.90365 28.31042,16.17634 3.30107,1.83095 7.92285,5.54685 11.90625,4.58467 4.39695,-1.06205 5.23432,-7.82055 6.02988,-11.50059 2.59874,-12.02114 2.61238,-23.171697 -0.0568,-35.189584 -1.06494,-4.794959 -2.69431,-13.308408 -9.41272,-11.766206 m -79.90411,29.2287 c -2.49183,2.56212 -8.23527,3.06561 -11.64167,2.8998 -1.54463,-0.0752 -3.69003,-0.65445 -4.11451,-2.37165 -0.56602,-2.28976 1.95531,-3.68916 3.84993,-3.918926 3.80264,-0.46118 8.78215,1.332206 11.90625,3.390776 m 43.39166,-0.26458 c 3.20592,-2.02297 8.64587,-3.278012 12.43542,-2.864487 1.8328,0.200004 4.38397,1.728947 3.84992,3.922627 -0.42508,1.74605 -2.51323,2.4921 -4.11451,2.62132 -3.44502,0.27802 -10.01881,-0.78327 -12.17083,-3.67946 m -29.10417,9.11955 c -4.05727,0.75394 -7.90739,4.23779 -11.37708,6.33183 -8.27124,4.99188 -16.43335,10.17343 -24.60625,15.3246 -3.56787,2.24875 -9.56511,4.62477 -10.55047,9.176113 -1.10938,5.1242 4.488,9.63594 7.90464,12.5875 7.4887,6.46933 16.11045,11.57694 25.66458,14.32303 3.46335,0.99545 7.47651,2.31612 11.1125,1.52726 5.68388,-1.23313 4.75145,-7.66277 5.05077,-12.03363 0.81375,-11.88274 0.46211,-23.840403 1.27555,-35.718753 0.24975,-3.64693 1.46587,-12.62177 -4.47424,-11.51795 m 13.23019,0.0727 c -2.35998,0.91377 -2.11769,3.57307 -2.11769,5.62443 v 16.40417 c 0,8.686133 0.17682,17.530553 0.77008,26.193743 0.24874,3.63218 -0.4782,7.69149 2.93511,10.14992 4.69259,3.37981 12.98685,-0.22252 17.72606,-1.96191 8.85786,-3.25107 17.11618,-8.71356 23.81251,-15.33277 2.71517,-2.68393 6.09802,-5.88067 5.47663,-10.05315 -0.62798,-4.216723 -5.95403,-6.456153 -9.1808,-8.479943 -9.18504,-5.76073 -18.29961,-11.62607 -27.51667,-17.33695 -2.89488,-1.79367 -8.22894,-6.631 -11.90523,-5.20754 m 5.02606,9.85776 c 1.85519,1.14076 3.41582,2.55338 5.02709,4.01368 1.91613,1.73657 4.12131,4.10023 4.2217,6.83424 0.0742,2.01922 -0.83953,3.98073 -3.16337,3.64659 -1.37681,-0.19796 -2.44987,-1.23844 -3.23094,-2.32387 -1.86599,-2.59309 -4.68171,-9.12029 -2.85448,-12.17064 m -20.90208,0.26459 c 0.8373,3.51852 -1.41026,9.03837 -3.45122,11.90523 -1.02854,1.44476 -3.16929,3.18188 -4.98666,1.92128 -1.55145,-1.07613 -1.42103,-3.50384 -0.92217,-5.09526 0.97217,-3.1013 6.14799,-8.22319 9.36005,-8.73125 z"
       id="path1"
       inkscape:export-filename="path1.svg"
       inkscape:export-xdpi="96"
       inkscape:export-ydpi="96" /></g></svg>
